<?xml version="1.0" encoding="UTF-8" standalone="no"?>
<!-- Created with Inkscape (http://www.inkscape.org/) -->

<svg
   version="1.1"
   id="svg1"
   width="512"
   height="512"
   viewBox="0 0 512 512"
   sodipodi:docname="logo-atelier-strasbourg_DiscordColor.svg"
   inkscape:version="1.3 (0e150ed6c4, 2023-07-21)"
   inkscape:export-filename="logo-atelier-strasbourg_Discord.eps.png"
   inkscape:export-xdpi="600"
   inkscape:export-ydpi="600"
   xmlns:inkscape="http://www.inkscape.org/namespaces/inkscape"
   xmlns:sodipodi="http://sodipodi.sourceforge.net/DTD/sodipodi-0.dtd"
   xmlns="http://www.w3.org/2000/svg"
   xmlns:svg="http://www.w3.org/2000/svg">
  <defs
     id="defs1" />
  <sodipodi:namedview
     id="namedview1"
     pagecolor="#505050"
     bordercolor="#eeeeee"
     borderopacity="1"
     inkscape:showpageshadow="0"
     inkscape:pageopacity="0"
     inkscape:pagecheckerboard="0"
     inkscape:deskcolor="#505050"
     inkscape:zoom="1.7076547"
     inkscape:cx="360.43587"
     inkscape:cy="197.34669"
     inkscape:window-width="2560"
     inkscape:window-height="1390"
     inkscape:window-x="0"
     inkscape:window-y="50"
     inkscape:window-maximized="1"
     inkscape:current-layer="layer1">
    <inkscape:page
       x="0"
       y="0"
       inkscape:label="1"
       id="page1"
       width="512"
       height="512"
       margin="0"
       bleed="0"
       inkscape:export-filename="logo-atelier-strasbourg_DiscordColor.png"
       inkscape:export-xdpi="600"
       inkscape:export-ydpi="600" />
  </sodipodi:namedview>
  <g
     inkscape:groupmode="layer"
     id="layer1"
     inkscape:label="Background"
     transform="translate(-49.226444,86.915908)">
    <rect
       style="fill:#f7ae0c;fill-opacity:1"
       id="rect33"
       width="512"
       height="512"
       x="49.226444"
       y="-86.915909" />
    <g
       id="group-R5"
       transform="matrix(0.75957874,0,0,0.75957874,-16.477781,23.751403)"
       style="fill:#f7ae0c;fill-opacity:1">
      <path
         id="path2"
         d="m 5172.76,1205.05 c 4.86,0 8.34,4.17 8.34,8.34 v 31.28 c 0,4.87 -4.17,8.34 -8.34,8.34 -4.17,0 -8.34,-4.17 -8.34,-8.34 v -31.28 c -0.7,-4.86 3.47,-8.34 8.34,-8.34"
         style="fill:#000000;fill-opacity:1;fill-rule:nonzero;stroke:none"
         transform="matrix(0.13333333,0,0,-0.13333333,0,382.66667)" />
      <path
         id="path3"
         d="m 5197.08,1205.05 c 4.87,0 8.34,4.17 8.34,8.34 v 31.28 c 0,4.87 -4.17,8.34 -8.34,8.34 -4.86,0 -8.34,-4.17 -8.34,-8.34 v -31.28 c 0,-4.86 3.48,-8.34 8.34,-8.34"
         style="fill:#000000;fill-opacity:1;fill-rule:nonzero;stroke:none"
         transform="matrix(0.13333333,0,0,-0.13333333,0,382.66667)" />
      <path
         id="path4"
         d="M 5247.82,1272.47 H 5391 c 4.87,0 8.34,4.17 8.34,8.34 0,4.87 -4.17,8.34 -8.34,8.34 h -143.18 c -4.86,0 -8.34,-4.17 -8.34,-8.34 -0.69,-4.17 3.48,-8.34 8.34,-8.34"
         style="fill:#000000;fill-opacity:1;fill-rule:nonzero;stroke:none"
         transform="matrix(0.13333333,0,0,-0.13333333,0,382.66667)" />
      <path
         id="path5"
         d="m 5319.41,1150.84 c -32.67,0 -59.77,-26.41 -59.77,-59.77 0,-32.67 26.41,-59.78 59.77,-59.78 32.67,0 59.78,26.41 59.78,59.78 -0.7,33.36 -27.11,59.77 -59.78,59.77 z m 0,-101.48 c -23.63,0 -42.4,18.77 -42.4,42.4 0,23.63 18.77,42.4 42.4,42.4 23.63,0 42.4,-18.77 42.4,-42.4 -0.7,-23.63 -19.46,-42.4 -42.4,-42.4"
         style="fill:#000000;fill-opacity:1;fill-rule:nonzero;stroke:none"
         transform="matrix(0.13333333,0,0,-0.13333333,0,382.66667)" />
      <path
         id="path6"
         d="m 5302.73,1120.26 c -4.17,-2.09 -5.56,-7.65 -3.47,-11.82 1.39,-2.78 4.17,-4.17 7.64,-4.17 1.39,0 2.78,0.7 4.17,1.39 4.17,2.09 5.56,7.65 3.48,11.82 -2.78,3.47 -7.65,4.86 -11.82,2.78"
         style="fill:#000000;fill-opacity:1;fill-rule:nonzero;stroke:none"
         transform="matrix(0.13333333,0,0,-0.13333333,0,382.66667)" />
      <path
         id="path7"
         d="m 5327.06,1077.86 c -4.17,-2.09 -5.56,-7.65 -3.48,-11.82 1.39,-2.78 4.17,-4.17 7.65,-4.17 1.39,0 2.78,0.7 4.17,1.39 4.17,2.09 5.56,7.65 3.47,11.82 -2.78,3.47 -7.64,4.86 -11.81,2.78"
         style="fill:#000000;fill-opacity:1;fill-rule:nonzero;stroke:none"
         transform="matrix(0.13333333,0,0,-0.13333333,0,382.66667)" />
      <path
         id="path8"
         d="m 5311.07,1077.86 c -4.17,2.08 -9.73,0.69 -11.81,-2.78 -2.09,-4.17 -0.7,-9.73 2.78,-11.82 1.39,-0.69 2.78,-1.39 4.17,-1.39 2.78,0 5.56,1.39 7.64,4.17 2.78,4.17 1.39,9.04 -2.78,11.82"
         style="fill:#000000;fill-opacity:1;fill-rule:nonzero;stroke:none"
         transform="matrix(0.13333333,0,0,-0.13333333,0,382.66667)" />
      <path
         id="path9"
         d="m 5327.06,1104.97 c 1.39,-0.7 2.78,-1.39 4.17,-1.39 2.78,0 5.56,1.39 7.64,4.17 2.09,4.17 0.7,9.73 -3.47,11.81 -4.17,2.09 -9.73,0.7 -11.82,-3.47 -2.08,-3.48 -0.69,-8.34 3.48,-11.12"
         style="fill:#000000;fill-opacity:1;fill-rule:nonzero;stroke:none"
         transform="matrix(0.13333333,0,0,-0.13333333,0,382.66667)" />
      <path
         id="path10"
         d="m 5303.43,1091.07 c 0,4.86 -4.17,8.34 -8.35,8.34 -4.86,0 -8.34,-4.17 -8.34,-8.34 0,-4.87 4.17,-8.35 8.34,-8.35 4.18,0 8.35,4.17 8.35,8.35"
         style="fill:#000000;fill-opacity:1;fill-rule:nonzero;stroke:none"
         transform="matrix(0.13333333,0,0,-0.13333333,0,382.66667)" />
      <path
         id="path11"
         d="m 5334.7,1091.76 c 0,0 0,-0.69 0,0 0,-4.87 4.17,-9.04 8.34,-9.04 4.87,0 8.34,3.48 8.34,8.35 0,4.86 -4.17,8.34 -8.34,8.34 -4.17,0.69 -7.64,-3.48 -8.34,-7.65"
         style="fill:#000000;fill-opacity:1;fill-rule:nonzero;stroke:none"
         transform="matrix(0.13333333,0,0,-0.13333333,0,382.66667)" />
      <path
         id="path12"
         d="m 5167.2,1098.02 h 27.8 c 4.86,0 8.34,4.17 8.34,8.34 v 24.32 c 0,12.51 -9.73,22.24 -22.24,22.24 -12.51,0 -22.24,-9.73 -22.24,-22.24 v -24.32 c -0.7,-4.17 3.47,-8.34 8.34,-8.34 z m 8.34,33.36 c 0,2.78 2.08,4.86 4.86,4.86 2.78,0 4.87,-2.08 4.87,-4.86 v -15.29 h -10.43 v 15.29 h 0.7"
         style="fill:#000000;fill-opacity:1;fill-rule:nonzero;stroke:none"
         transform="matrix(0.13333333,0,0,-0.13333333,0,382.66667)" />
      <path
         id="path13"
         d="m 5195,947.191 c 4.86,0 8.34,4.168 8.34,8.34 v 39.617 c 0,12.512 -9.73,22.242 -22.24,22.242 -12.51,0 -22.24,-9.73 -22.24,-22.242 v -39.617 c 0,-4.859 4.17,-8.34 8.34,-8.34 z m -19.46,47.957 c 0,2.782 2.08,4.862 4.86,4.862 2.78,0 4.87,-2.08 4.87,-4.862 v -31.277 h -10.43 v 31.277 h 0.7"
         style="fill:#000000;fill-opacity:1;fill-rule:nonzero;stroke:none"
         transform="matrix(0.13333333,0,0,-0.13333333,0,382.66667)" />
      <path
         id="path14"
         d="m 5322.89,1024.34 c -12.51,0 -22.24,-9.73 -22.24,-22.24 v -47.959 c 0,-4.871 4.17,-8.34 8.34,-8.34 h 27.8 c 4.86,0 8.34,4.168 8.34,8.34 v 47.259 c 0,12.51 -9.73,22.94 -22.24,22.94 z m -5.56,-62.551 v 39.611 c 0,2.78 2.08,4.87 4.86,4.87 2.78,0 4.87,-2.09 4.87,-4.87 v -39.611 h -9.73"
         style="fill:#000000;fill-opacity:1;fill-rule:nonzero;stroke:none"
         transform="matrix(0.13333333,0,0,-0.13333333,0,382.66667)" />
      <path
         id="path15"
         d="m 5263.81,1241.89 v -39.62 c 0,-4.86 4.17,-8.34 8.34,-8.34 h 27.8 c 4.87,0 8.34,4.17 8.34,8.34 v 39.62 c 0,12.51 -9.73,22.24 -22.24,22.24 -12.51,0.7 -22.24,-9.73 -22.24,-22.24 z m 27.1,0 v -31.28 h -10.42 v 31.28 c 0,2.78 2.08,4.87 4.86,4.87 3.48,0.69 5.56,-1.39 5.56,-4.87"
         style="fill:#000000;fill-opacity:1;fill-rule:nonzero;stroke:none"
         transform="matrix(0.13333333,0,0,-0.13333333,0,382.66667)" />
      <path
         id="path16"
         d="m 5329.84,1241.89 v -39.62 c 0,-4.86 4.17,-8.34 8.34,-8.34 h 27.8 c 4.87,0 8.34,4.17 8.34,8.34 v 39.62 c 0,12.51 -9.73,22.24 -22.24,22.24 -12.51,0.7 -22.24,-9.73 -22.24,-22.24 z m 27.8,0 v -31.28 h -10.43 v 31.28 c 0,2.78 2.09,4.87 4.87,4.87 2.78,0.69 5.56,-1.39 5.56,-4.87"
         style="fill:#000000;fill-opacity:1;fill-rule:nonzero;stroke:none"
         transform="matrix(0.13333333,0,0,-0.13333333,0,382.66667)" />
      <path
         id="path17"
         d="m 5438.26,993.762 v -39.621 c 0,-4.871 4.18,-8.34 8.35,-8.34 h 27.8 c 4.86,0 8.34,4.168 8.34,8.34 v 39.621 c 0,12.508 -9.73,22.238 -22.24,22.238 -12.51,0 -22.25,-10.43 -22.25,-22.238 z m 27.11,0 V 962.48 h -10.42 v 31.282 c 0,2.777 2.08,4.859 4.86,4.859 3.48,0 5.56,-2.082 5.56,-4.859"
         style="fill:#000000;fill-opacity:1;fill-rule:nonzero;stroke:none"
         transform="matrix(0.13333333,0,0,-0.13333333,0,382.66667)" />
      <path
         id="path18"
         d="m 5185.27,1305.14 c 4.86,0 8.34,4.17 8.34,8.34 v 33.36 c 0,4.87 -4.17,8.34 -8.34,8.34 -4.87,0 -8.34,-4.17 -8.34,-8.34 v -33.36 c 0,-4.86 3.47,-8.34 8.34,-8.34"
         style="fill:#000000;fill-opacity:1;fill-rule:nonzero;stroke:none"
         transform="matrix(0.13333333,0,0,-0.13333333,0,382.66667)" />
      <path
         id="path19"
         d="m 5441.74,1253.71 c -4.87,0 -8.34,-4.17 -8.34,-8.34 v -31.28 c 0,-4.87 4.17,-8.34 8.34,-8.34 4.17,0 8.34,4.17 8.34,8.34 v 31.28 c 0,4.17 -4.17,8.34 -8.34,8.34"
         style="fill:#000000;fill-opacity:1;fill-rule:nonzero;stroke:none"
         transform="matrix(0.13333333,0,0,-0.13333333,0,382.66667)" />
      <path
         id="path20"
         d="m 5466.07,1253.71 c -4.87,0 -8.34,-4.17 -8.34,-8.34 v -31.28 c 0,-4.87 4.17,-8.34 8.34,-8.34 4.17,0 8.34,4.17 8.34,8.34 v 31.28 c 0.69,4.17 -3.48,8.34 -8.34,8.34"
         style="fill:#000000;fill-opacity:1;fill-rule:nonzero;stroke:none"
         transform="matrix(0.13333333,0,0,-0.13333333,0,382.66667)" />
      <path
         id="path21"
         d="m 5457.73,1153.62 c -12.51,0 -22.25,-9.73 -22.25,-22.24 v -24.33 c 0,-4.86 4.17,-8.34 8.35,-8.34 h 27.8 c 4.86,0 8.34,4.17 8.34,8.34 v 24.33 c 0,11.81 -9.73,22.24 -22.24,22.24 z m -5.56,-38.23 v 15.29 c 0,2.78 2.08,4.87 4.86,4.87 2.78,0 4.87,-2.09 4.87,-4.87 v -15.29 h -9.73"
         style="fill:#000000;fill-opacity:1;fill-rule:nonzero;stroke:none"
         transform="matrix(0.13333333,0,0,-0.13333333,0,382.66667)" />
      <path
         id="path22"
         d="m 5509.85,980.551 c -4.86,0 -8.34,-4.172 -8.34,-8.34 V 950.77 l -81.32,-0.09 v 119.53 h 74.37 l 6.95,-32.66 v -36.15 c 0,-4.861 4.17,-8.341 8.34,-8.341 4.87,0 8.35,4.171 8.35,8.341 0,0 0,38.23 0,38.93 l -8.35,38.92 v 94.53 c 0,4.86 -4.17,8.34 -8.34,8.34 v 104.25 l -1.39,5.56 h -95.91 l -1.39,-5.56 c 0,-0.69 0,-104.25 0,-104.25 h -168.2 v 199.48 l -13.91,69.5 -27.1,141.79 c -0.7,4.17 -4.17,6.95 -8.34,6.95 -4.17,0 -7.65,-2.78 -8.34,-6.95 l -26.42,-141.79 -13.9,-69.5 c 0,-0.7 0,-199.48 0,-199.48 -4.86,0 -8.34,-4.17 -8.34,-8.34 v -94.53 l -8.34,-39.62 c 0,-0.69 0,-38.92 0,-38.92 0,-4.87 4.17,-8.339 8.34,-8.339 4.17,0 8.34,4.168 8.34,8.339 v 36.14 l 6.95,32.67 h 74.37 v -29.19 l 0.39,-87.881 L 5127.82,952 3005.31,548.961 c 0.15,-0.641 -0.46,-40.18 -0.43,-39.391 3.45,-3.16 2118.53,402.078 2122.7,402.078 l 275.24,0.793 h 107.03 c 4.87,0 8.35,9.731 8.35,19.457 v 40.313 c 0.69,4.168 -3.48,8.34 -8.35,8.34 z m -89.66,295.399 h 63.25 v -93.83 h -63.25 z m 0,-111.21 h 72.29 v -77.85 h -72.29 z m -205.04,223.81 h -15.98 l 10.42,29.19 z m -29.88,155.69 17.37,-93.83 -17.37,-48.66 -17.38,48.66 z m -24.33,-126.5 10.43,-29.19 h -15.99 z m 56.3,-46.57 v -81.32 h -63.25 v 81.32 z m 0,-284.28 h -72.29 v 77.85 h 72.29 z m 0,95.23 h -63.25 v 93.83 h 63.25 z m 186.27,-132.76 h -34.05 c -4.87,0 -8.35,-4.17 -8.35,-8.34 0,-4.86 4.17,-8.34 8.35,-8.34 h 33.36 v -81.301 l -168.01,-0.219 -0.19,80.83 h 34.75 c 4.86,0 8.34,4.17 8.34,8.34 0,4.86 -4.17,8.34 -8.34,8.34 h -34.75 v 116.07 h 168.89 v -115.38"
         style="fill:#000000;fill-opacity:1;fill-rule:nonzero;stroke:none"
         transform="matrix(0.13333333,0,0,-0.13333333,0,382.66667)" />
      <path
         id="path23"
         d="m 1696.96,1133.43 -145.71,-28.32 75.85,220.27 z m 2827.17,819.1 93.31,18.04 c 32.62,6.36 59.71,7.53 81.28,3.53 22.26,-3.87 35.74,-18.25 40.57,-43.27 4.7,-24.33 2.42,-44.17 -6.91,-59.65 -9.47,-14.79 -23.84,-26.48 -42.99,-34.98 -18.66,-7.74 -40.23,-13.96 -64.7,-18.73 l -100.56,-18.79 z m -3373.23,-741.14 176.11,34.22 v 221.52 L 1150.9,1432.9 Z m 3221.78,847.76 v -683.28 l 151.45,29.44 v 257.76 l 69.25,13.47 168.65,-224.92 156.14,30.35 -180.4,240.05 c 61.45,22.19 105.82,53.29 133.13,93.38 27.85,40.85 35.25,94.83 22.25,161.81 -12.51,64.35 -43.27,105.4 -92.27,123.17 -48.52,18.52 -111.01,20.32 -187.52,5.46 l -235.15,-45.69 z m -559.72,-108.8 v -683.28 l 487.22,94.7 v 142.2 l -334.19,-65.06 v 135.57 l 205.56,39.96 v 145.22 l -205.56,-39.95 v 117.37 l 334.19,64.96 v 143.01 l -481.56,-93.83 z m -414.24,-80.69 -0.69,-142.98 84.53,16.43 v -398.07 l -84.53,-16.43 v -142.7 l 324.32,63.04 v 142.7 l -88.36,-17.17 v 398.07 l 88.36,17.17 0.96,142.9 -324.52,-63.1 z m -393.91,-76.4 V 866.109 l 2068.88,402.131 v 155.11 L 3177.82,1054.81 v 772.08 z M 2415.02,1678.62 V 995.301 l 487.22,94.689 v 142.25 l -334.19,-65.11 v 135.62 l 205.56,39.96 v 145.22 l -205.56,-39.96 v 117.94 l 334.19,64.4 v 143.01 z m -1125.54,-902.151 159.12,30.511 52.65,152.942 241.76,46.988 48.5,-133.281 145.06,28.633 -231.79,638.308 -164.09,-31.9 z M 834.738,1371.26 834.672,444.211 2902.24,845.359 v 155.451 l -1879.22,-364.869 0.36,772.009 z m 0,230.53 V 1448.86 L 2033.27,1681.49 V 921.059 L 2197.57,953 v 760.42 l 2876.12,559.46 v 152.91 l -4238.952,-824"
         style="fill:#000000;fill-opacity:1;fill-rule:nonzero;stroke:none"
         transform="matrix(0.13333333,0,0,-0.13333333,0,382.66667)" />
      <path
         id="path24"
         d="m 3166.61,594.25 c -23.21,-1.91 -43.4,0.961 -60.59,8.578 -17.19,7.633 -29.59,19.07 -37.21,34.313 l 48.48,19.648 c 2.13,-6.449 5.78,-11.57 10.95,-15.367 5.17,-3.793 11.17,-6.41 18,-7.863 6.84,-1.45 13.55,-1.899 20.15,-1.36 9.37,0.77 17.51,3.153 24.42,7.129 6.91,3.981 10.17,9.07 9.77,15.274 -0.33,4.988 -2.68,9.019 -7.05,12.07 -4.37,3.058 -10.09,5.5 -17.16,7.328 -7.08,1.828 -14.84,3.602 -23.3,5.32 -8.46,1.719 -16.88,3.739 -25.27,6.059 -8.39,2.32 -16.19,5.449 -23.4,9.383 -7.21,3.918 -13.11,9.019 -17.69,15.269 -4.57,6.25 -7.17,14.168 -7.8,23.77 -0.69,10.789 1.21,20.23 5.71,28.34 4.51,8.097 10.8,15 18.89,20.679 8.08,5.692 17.37,10.168 27.86,13.442 10.48,3.269 21.48,5.379 32.97,6.328 10.65,0.871 21.38,0.398 32.2,-1.43 10.81,-1.82 21.06,-5.551 30.74,-11.18 9.67,-5.64 17.84,-13.601 24.5,-23.91 l -48.49,-19.648 c -3.22,6.769 -8.77,11.488 -16.64,14.148 -7.88,2.668 -15.76,3.68 -23.63,3.032 -10.86,-0.891 -19.06,-3.223 -24.59,-6.993 -5.53,-3.769 -8.13,-8.25 -7.8,-13.437 0.35,-5.402 2.71,-9.57 7.07,-12.531 4.37,-2.961 10.09,-5.352 17.16,-7.18 7.08,-1.832 14.83,-3.449 23.27,-4.871 8.44,-1.41 16.9,-3.129 25.37,-5.149 8.48,-2.011 16.31,-4.832 23.5,-8.461 7.2,-3.628 13.07,-8.468 17.64,-14.519 4.56,-6.063 7.16,-13.883 7.78,-23.473 0.93,-14.386 -2.55,-26.777 -10.43,-37.168 -7.89,-10.39 -18.54,-18.601 -31.95,-24.621 -13.42,-6.019 -27.89,-9.668 -43.43,-10.949"
         style="fill:#000000;fill-opacity:1;fill-rule:nonzero;stroke:none"
         transform="matrix(0.13333333,0,0,-0.13333333,0,382.66667)" />
      <path
         id="path25"
         d="m 3290.37,619.922 5.66,228.867 -290.72,-55.25 1.65,42.68 2071.16,398.131 -1.35,-42.62 -1732.25,-334.14 -5.34,-228.82 -48.81,-8.848"
         style="fill:#000000;fill-opacity:1;fill-rule:nonzero;stroke:none"
         transform="matrix(0.13333333,0,0,-0.13333333,0,382.66667)" />
      <path
         id="path26"
         d="m 3391.95,638.789 3.98,205.473 78.52,16.258 c 25.54,5.289 46.41,5.468 62.6,0.55 16.2,-4.922 26.28,-16.968 30.26,-36.172 4.13,-19.968 1.54,-36.187 -7.79,-48.628 -9.32,-12.45 -24.25,-22.329 -44.79,-29.649 l 59.39,-70.121 -52.14,-10.789 -55.53,65.711 -22.3,-4.621 -1.63,-77.539 z m 52.97,128.609 32.35,6.704 c 8.17,1.687 15.42,3.847 21.75,6.488 6.33,2.64 11.09,6.281 14.28,10.922 3.18,4.636 4.03,10.59 2.53,17.828 -1.54,7.449 -5.96,11.64 -13.25,12.582 -7.29,0.937 -16.38,0.289 -27.27,-1.973 l -29.52,-6.109 -0.87,-46.442"
         style="fill:#000000;fill-opacity:1;fill-rule:nonzero;stroke:none"
         transform="matrix(0.13333333,0,0,-0.13333333,0,382.66667)" />
      <path
         id="path27"
         d="m 3596.87,678.672 83.12,221.848 57.48,11.902 75.48,-189.024 -51.82,-10.726 -12.26,33.918 -80.09,-16.578 -13.49,-39.25 z m 85.48,93.359 54.02,11.188 -25.49,72.531 -28.53,-83.719"
         style="fill:#000000;fill-opacity:1;fill-rule:nonzero;stroke:none"
         transform="matrix(0.13333333,0,0,-0.13333333,0,382.66667)" />
      <path
         id="path28"
         d="m 3904.76,736.949 c -23.22,-1.609 -43.36,1.5 -60.44,9.34 -17.07,7.84 -29.31,19.441 -36.71,34.781 l 48.74,19.059 c 2.03,-6.488 5.61,-11.66 10.72,-15.52 5.12,-3.859 11.08,-6.55 17.89,-8.078 6.81,-1.543 13.52,-2.07 20.12,-1.609 9.38,0.648 17.54,2.93 24.51,6.816 6.96,3.903 10.29,8.953 9.97,15.153 -0.25,5 -2.54,9.058 -6.87,12.168 -4.32,3.113 -10.01,5.632 -17.05,7.543 -7.05,1.918 -14.79,3.789 -23.22,5.609 -8.43,1.82 -16.82,3.949 -25.17,6.379 -8.36,2.43 -16.11,5.648 -23.26,9.672 -7.15,4.019 -12.97,9.179 -17.46,15.488 -4.49,6.309 -6.98,14.27 -7.46,23.871 -0.55,10.809 1.48,20.231 6.1,28.277 4.62,8.051 11,14.872 19.17,20.461 8.16,5.59 17.5,9.95 28.03,13.09 10.53,3.153 21.55,5.121 33.05,5.922 10.65,0.738 21.37,0.141 32.16,-1.82 10.79,-1.961 20.98,-5.821 30.57,-11.571 9.59,-5.761 17.64,-13.832 24.16,-24.21 l -48.74,-19.059 c -3.13,6.809 -8.61,11.598 -16.44,14.359 -7.84,2.77 -15.7,3.879 -23.58,3.328 -10.86,-0.757 -19.09,-2.988 -24.67,-6.687 -5.59,-3.699 -8.25,-8.152 -7.99,-13.359 0.28,-5.403 2.58,-9.602 6.9,-12.614 4.32,-3.008 10,-5.476 17.05,-7.398 7.04,-1.91 14.77,-3.629 23.19,-5.16 8.41,-1.52 16.84,-3.34 25.29,-5.461 8.44,-2.117 16.23,-5.039 23.37,-8.758 7.13,-3.723 12.94,-8.633 17.42,-14.742 4.48,-6.11 6.96,-13.969 7.45,-23.571 0.73,-14.41 -2.92,-26.75 -10.95,-37.046 -8.03,-10.301 -18.79,-18.372 -32.28,-24.231 -13.5,-5.859 -28.02,-9.332 -43.57,-10.422"
         style="fill:#000000;fill-opacity:1;fill-rule:nonzero;stroke:none"
         transform="matrix(0.13333333,0,0,-0.13333333,0,382.66667)" />
      <path
         id="path29"
         d="m 4019.68,760.129 3.97,205.473 92.34,19.117 c 12.35,2.551 24.01,3.742 34.96,3.562 10.96,-0.179 20.26,-2.652 27.9,-7.402 7.64,-4.75 12.64,-12.801 14.99,-24.16 2.27,-10.969 1.32,-21.43 -2.84,-31.379 -4.16,-9.949 -11.31,-18.418 -21.43,-25.418 7.98,-1.621 14.78,-4.961 20.42,-10.024 5.63,-5.058 9.44,-12.386 11.43,-21.988 3.24,-15.672 1.33,-29.39 -5.73,-41.172 -7.06,-11.769 -17.64,-21.566 -31.74,-29.386 -14.11,-7.821 -30.16,-13.602 -48.17,-17.321 z m 53,134.742 43.66,9.039 c 9.21,1.91 16.37,5.578 21.46,11.031 5.1,5.45 6.9,11.789 5.4,19.039 -1.02,4.899 -3.71,8.418 -8.09,10.579 -4.38,2.16 -10.44,2.429 -18.19,0.832 l -43.34,-8.969 z m -1.61,-83.973 46.17,9.563 c 11.09,2.301 19.61,6.769 25.55,13.41 5.94,6.641 8.14,13.68 6.6,21.129 -1.17,5.68 -4.69,9.488 -10.56,11.441 -5.86,1.957 -13.4,1.981 -22.61,0.071 l -44.28,-9.172 -0.87,-46.442"
         style="fill:#000000;fill-opacity:1;fill-rule:nonzero;stroke:none"
         transform="matrix(0.13333333,0,0,-0.13333333,0,382.66667)" />
      <path
         id="path30"
         d="m 4327.9,821.281 c -20.1,-4.16 -37.94,-4.23 -53.51,-0.203 -15.57,4.031 -28.41,11.481 -38.53,22.352 -10.11,10.879 -16.85,24.441 -20.21,40.699 -3.49,16.84 -3.71,33.191 -0.65,49.043 3.05,15.84 8.98,30.449 17.78,43.808 8.81,13.36 20.11,24.69 33.91,33.98 13.8,9.29 29.7,15.8 47.71,19.53 19.05,3.94 36.42,4.17 52.1,0.67 15.68,-3.49 28.9,-10.66 39.66,-21.5 10.76,-10.851 18.03,-25.379 21.8,-43.59 3.53,-17.039 3.69,-33.398 0.49,-49.07 -3.19,-15.672 -9.28,-30.051 -18.25,-43.148 -8.97,-13.09 -20.43,-24.192 -34.37,-33.301 -13.95,-9.121 -29.92,-15.539 -47.93,-19.27 z m -3.51,39.098 c 13.61,2.82 24.7,8.84 33.27,18.07 8.57,9.231 14.47,20.301 17.69,33.231 3.22,12.922 3.45,26.039 0.7,39.351 -2.4,11.559 -6.6,20.539 -12.63,26.949 -6.02,6.418 -12.96,10.7 -20.83,12.848 -7.87,2.152 -15.89,2.383 -24.06,0.692 -10.25,-2.129 -19.06,-6.25 -26.42,-12.372 -7.36,-6.117 -13.2,-13.5 -17.52,-22.16 -4.32,-8.66 -7.05,-17.898 -8.18,-27.726 -1.13,-9.84 -0.7,-19.551 1.28,-29.153 1.87,-9.007 5.3,-16.879 10.29,-23.597 5,-6.731 11.42,-11.633 19.26,-14.703 7.84,-3.079 16.89,-3.547 27.15,-1.43"
         style="fill:#000000;fill-opacity:1;fill-rule:nonzero;stroke:none"
         transform="matrix(0.13333333,0,0,-0.13333333,0,382.66667)" />
      <path
         id="path31"
         d="m 4546.18,860.02 c -18.84,-3.899 -34.29,-4.442 -46.34,-1.629 -12.04,2.82 -21.33,8.148 -27.87,15.988 -6.53,7.832 -10.96,17.332 -13.27,28.5 -1.01,4.891 -1.68,9.961 -2,15.211 -0.32,5.238 -0.42,10.73 -0.3,16.48 l 2.57,115.72 50.57,10.47 -2.41,-119.67 c 0.01,-4.289 0.08,-8.309 0.2,-12.059 0.12,-3.761 0.53,-7.301 1.22,-10.633 1.62,-7.828 5.26,-13.558 10.93,-17.187 5.66,-3.621 14.88,-4.121 27.65,-1.473 11.52,2.383 20.17,6.211 25.95,11.5 5.79,5.282 9.77,11.871 11.95,19.782 2.19,7.91 3.33,16.878 3.44,26.91 l 2.41,119.67 50.57,10.47 -2.26,-115.66 c -0.38,-19.281 -2.55,-35.398 -6.53,-48.379 -3.97,-12.972 -9.74,-23.609 -17.3,-31.922 -7.56,-8.3 -17.11,-14.929 -28.64,-19.871 -11.53,-4.937 -25.04,-9.008 -40.54,-12.218"
         style="fill:#000000;fill-opacity:1;fill-rule:nonzero;stroke:none"
         transform="matrix(0.13333333,0,0,-0.13333333,0,382.66667)" />
      <path
         id="path32"
         d="m 4674.74,889.941 3.97,205.479 78.52,16.25 c 25.55,5.29 46.41,5.47 62.61,0.55 16.19,-4.92 26.28,-16.97 30.25,-36.17 4.14,-19.97 1.54,-36.18 -7.78,-48.63 -9.33,-12.45 -24.26,-22.33 -44.8,-29.65 l 59.39,-70.122 -52.14,-10.789 -55.52,65.711 -22.3,-4.621 -1.64,-77.539 z m 52.97,128.609 32.35,6.7 c 8.16,1.69 15.41,3.85 21.74,6.49 6.33,2.64 11.09,6.28 14.28,10.92 3.19,4.65 4.03,10.59 2.53,17.84 -1.54,7.44 -5.95,11.63 -13.25,12.57 -7.29,0.94 -16.38,0.29 -27.26,-1.97 l -29.53,-6.11 -0.86,-46.44"
         style="fill:#000000;fill-opacity:1;fill-rule:nonzero;stroke:none"
         transform="matrix(0.13333333,0,0,-0.13333333,0,382.66667)" />
      <path
         id="path33"
         d="m 4966.41,936.84 c -14.03,-2.899 -27.64,-2.551 -40.83,1.051 -13.19,3.597 -24.69,10.609 -34.49,21.039 -9.8,10.429 -16.51,24.359 -20.12,41.79 -3.46,16.75 -4.04,32.92 -1.72,48.51 0.09,0.63 0.19,1.27 0.3,1.9 2.65,16.17 8.22,30.96 16.69,44.36 8.47,13.39 19.61,24.73 33.4,34.02 13.8,9.29 30.02,15.87 48.65,19.73 18.43,3.81 35.4,3.85 50.91,0.12 15.51,-3.74 28.18,-12.45 38,-26.14 l -43.02,-26.37 c -3.14,4.66 -8.69,8.51 -16.64,11.57 -7.94,3.05 -17.36,3.45 -28.25,1.19 -10.26,-2.12 -18.84,-6.29 -25.74,-12.52 -6.9,-6.23 -12.23,-13.72 -15.98,-22.46 -3.76,-8.74 -6.02,-18.15 -6.77,-28.21 -0.76,-10.06 -0.12,-19.99 1.9,-29.78 3.25,-15.67 9.83,-26.609 19.74,-32.831 9.91,-6.219 21.78,-7.899 35.6,-5.039 7.11,1.468 13.98,4.171 20.59,8.089 6.61,3.93 12.08,8.891 16.41,14.891 4.32,6 6.53,12.99 6.63,20.98 l 0.1,5.84 -47.11,-9.75 0.69,39.36 97.99,20.28 c 0,0 0.15,-68.38 0.35,-116.05 l -41.59,-7.781 -1.2,21.91 c -13.89,-20.437 -35.39,-33.668 -64.49,-39.699"
         style="fill:#000000;fill-opacity:1;fill-rule:nonzero;stroke:none"
         transform="matrix(0.13333333,0,0,-0.13333333,0,382.66667)" />
    </g>
  </g>
</svg>
